<?xml version="1.0" encoding="UTF-8" standalone="no"?>
<!-- Created with Inkscape (http://www.inkscape.org/) -->

<svg
   width="49.354675mm"
   height="88.154282mm"
   viewBox="0 0 49.354675 88.154282"
   version="1.1"
   id="svg1"
   xml:space="preserve"
   inkscape:version="1.3.2 (091e20e, 2023-11-25, custom)"
   sodipodi:docname="projet_s8_inkscape.svg"
   xmlns:inkscape="http://www.inkscape.org/namespaces/inkscape"
   xmlns:sodipodi="http://sodipodi.sourceforge.net/DTD/sodipodi-0.dtd"
   xmlns="http://www.w3.org/2000/svg"
   xmlns:svg="http://www.w3.org/2000/svg"><sodipodi:namedview
     id="namedview1"
     pagecolor="#ffffff"
     bordercolor="#000000"
     borderopacity="0.25"
     inkscape:showpageshadow="2"
     inkscape:pageopacity="0.0"
     inkscape:pagecheckerboard="0"
     inkscape:deskcolor="#d1d1d1"
     inkscape:document-units="mm"
     inkscape:zoom="0.27171016"
     inkscape:cx="2427.2188"
     inkscape:cy="522.61572"
     inkscape:window-width="1440"
     inkscape:window-height="830"
     inkscape:window-x="-6"
     inkscape:window-y="-6"
     inkscape:window-maximized="1"
     inkscape:current-layer="layer1"
     showgrid="false"
     showguides="true" /><defs
     id="defs1" /><g
     inkscape:label="Calque 1"
     inkscape:groupmode="layer"
     id="layer1"
     transform="translate(-819.47469,-221.46504)"><path
       style="fill:#000000;stroke:#000000;stroke-width:3.6;stroke-dasharray:none;stroke-opacity:1"
       d="m 864.88253,307.49582 c 1.62925,-0.70938 2.51501,-2.57884 1.98385,-4.18706 -0.19972,-0.60471 -5.77594,-6.35191 -18.74269,-19.3174 l -18.45838,-18.45658 18.19271,-18.18561 c 10.00599,-10.00209 18.3713,-18.56197 18.58958,-19.02195 1.2676,-2.67126 -0.87599,-5.52474 -3.75896,-5.0038 -0.89437,0.16161 -3.35245,2.19372 -21.05253,20.20606 -19.21407,19.55304 -21.0532,20.94893 -20.27308,22.932 0.2568,0.65279 6.48048,7.05588 20.34602,20.93252 10.98682,10.99563 20.25168,20.10136 20.58858,20.23498 0.83268,0.33023 1.61292,0.29004 2.5849,-0.13316 z"
       id="path10"
       sodipodi:nodetypes="ssscssssssss"
       inkscape:export-filename="fleche_droite.svg"
       inkscape:export-xdpi="99.361458"
       inkscape:export-ydpi="99.361458" /></g></svg>
